<?xml version="1.0" encoding="utf-8"?>
<!-- Generator: Adobe Illustrator 26.0.2, SVG Export Plug-In . SVG Version: 6.00 Build 0)  -->
<svg version="1.1" id="Ebene_1" xmlns="http://www.w3.org/2000/svg" xmlns:xlink="http://www.w3.org/1999/xlink" x="0px" y="0px"
	 viewBox="0 0 512 512" style="enable-background:new 0 0 512 512;" xml:space="preserve">
<style type="text/css">
	.st0{fill:#FFFFFF;}
</style>
<path class="st0" d="M256,79.8c-97.3,0-176.2,78.9-176.2,176.2S158.7,432.2,256,432.2c97.3-0.1,176.1-79,176.2-176.2
	C432.2,158.7,353.3,79.8,256,79.8z M122.4,258.4c0-74.2,60.3-134.3,134.5-134.3c30.2,0,59.5,10.2,83.2,28.9L151.3,341.8
	C132.5,318.1,122.3,288.7,122.4,258.4z M371.9,336.7c-41.4,61.6-124.9,78-186.5,36.6l186.5-186.5C402.4,232,402.4,291.3,371.9,336.7
	z"/>
</svg>
