<?xml version="1.0" encoding="UTF-8" standalone="no"?>
<svg
   width="210mm"
   height="297mm"
   version="1.1"
   viewBox="0 0 210 297"
   id="svg27731"
   xmlns="http://www.w3.org/2000/svg"
   xmlns:svg="http://www.w3.org/2000/svg">
  <defs
     id="defs27735" />
  <g
     transform="translate(32.1675,-10.485)"
     fill="#ffffff"
     stroke-width="0.265"
     id="g27729">
    <path
       d="m 26.148,84.224 h 18.073 c 7.9338,0 14.321,6.3872 14.321,14.321 v 121.05 c 0,7.9338 -6.3872,14.321 -14.321,14.321 H 26.148 c -7.9338,0 -14.321,-6.3872 -14.321,-14.321 V 98.545 c 0,-7.9338 6.3872,-14.321 14.321,-14.321 z"
       id="path27725" />
    <path
       transform="translate(51.319,-0.17)"
       d="m 50.125,84.224 h 18.073 c 7.9338,0 14.321,6.3872 14.321,14.321 v 121.05 c 0,7.9338 -6.3872,14.321 -14.321,14.321 H 50.125 c -7.9338,0 -14.321,-6.3872 -14.321,-14.321 V 98.545 c 0,-7.9338 6.3872,-14.321 14.321,-14.321 z"
       id="path27727" />
  </g>
</svg>
