<?xml version="1.0" encoding="utf-8"?>
<!-- Generator: Adobe Illustrator 26.0.2, SVG Export Plug-In . SVG Version: 6.00 Build 0)  -->
<svg version="1.1" id="Layer_1" xmlns="http://www.w3.org/2000/svg" xmlns:xlink="http://www.w3.org/1999/xlink" x="0px" y="0px"
	 viewBox="0 0 32 32" style="enable-background:new 0 0 32 32;" xml:space="preserve">
<style type="text/css">
	.st0{fill:#FFFFFF;}
</style>
<g>
	<g>
		<path class="st0" d="M13.7,27c-0.3,0-0.5-0.1-0.7-0.3l-2.5-2.5c-0.4-0.4-0.4-1,0-1.4l2.5-2.5c0.4-0.4,1-0.4,1.4,0s0.4,1,0,1.4
			l-1.8,1.8l1.8,1.8c0.4,0.4,0.4,1,0,1.4C14.2,26.9,14,27,13.7,27z"/>
	</g>
	<g>
		<path class="st0" d="M18.3,12.1c-0.3,0-0.5-0.1-0.7-0.3c-0.4-0.4-0.4-1,0-1.4l1.8-1.8l-1.8-1.8c-0.4-0.4-0.4-1,0-1.4
			c0.4-0.4,1-0.4,1.4,0l2.5,2.5c0.4,0.4,0.4,1,0,1.4L19,11.8C18.8,12,18.5,12.1,18.3,12.1z"/>
	</g>
	<g>
		<path class="st0" d="M20.8,24.5h-9.6c-0.6,0-1-0.4-1-1s0.4-1,1-1h9.6c3.4,0,6.2-2.8,6.2-6.2c0-2.1-1-4-2.8-5.2
			c-0.5-0.3-0.6-0.9-0.3-1.4c0.3-0.5,0.9-0.6,1.4-0.3c2.3,1.5,3.6,4.1,3.6,6.8C29,20.8,25.3,24.5,20.8,24.5z"/>
	</g>
	<g>
		<path class="st0" d="M7.2,22.7c-0.2,0-0.4-0.1-0.6-0.2C4.4,21,3,18.4,3,15.7c0-4.5,3.7-8.2,8.2-8.2h9.6c0.6,0,1,0.4,1,1
			s-0.4,1-1,1h-9.6C7.8,9.5,5,12.3,5,15.7c0,2.1,1,4,2.7,5.1c0.5,0.3,0.6,0.9,0.3,1.4C7.8,22.5,7.5,22.7,7.2,22.7z"/>
	</g>
</g>
</svg>
